<?xml version="1.0" standalone="no"?>
<!DOCTYPE svg PUBLIC "-//W3C//DTD SVG 20010904//EN"
 "http://www.w3.org/TR/2001/REC-SVG-20010904/DTD/svg10.dtd">
<svg version="1.0" xmlns="http://www.w3.org/2000/svg"
 width="700.000000pt" height="700.000000pt" viewBox="0 0 700.000000 700.000000"
 preserveAspectRatio="xMidYMid meet">
<metadata>
Created by potrace 1.14, written by Peter Selinger 2001-2017
</metadata>
<g transform="translate(0.000000,700.000000) scale(0.100000,-0.100000)"
fill="#000000" stroke="none">
<path d="M2102 6567 c-34 -19 -55 -55 -56 -96 -2 -87 251 -453 508 -734 l108
-117 -182 -188 c-101 -103 -186 -188 -190 -190 -3 -1 -76 36 -161 84 -456 255
-940 494 -1000 494 -52 0 -89 -37 -89 -89 0 -34 10 -54 67 -128 165 -218 339
-418 595 -686 l170 -177 -52 -68 -52 -68 -182 104 c-417 238 -785 393 -1039
437 -75 13 -93 13 -121 1 -48 -20 -76 -61 -76 -112 0 -36 8 -53 52 -111 192
-253 478 -536 816 -807 l123 -98 -17 -27 c-67 -102 -88 -131 -97 -131 -22 0
-635 440 -870 625 -149 117 -181 137 -216 129 -40 -9 -71 -49 -71 -92 0 -32 8
-44 63 -97 151 -144 572 -512 823 -719 l120 -99 -76 -126 c-69 -113 -203 -349
-305 -534 -34 -63 -39 -68 -64 -63 -14 3 -88 15 -163 27 -149 24 -168 21 -168
-26 0 -26 5 -28 170 -81 63 -20 118 -38 122 -40 3 -2 -29 -77 -72 -167 -128
-267 -212 -468 -206 -494 8 -29 38 -45 78 -41 31 3 34 9 108 173 59 132 223
470 234 482 1 1 42 -10 90 -24 l88 -27 17 23 17 22 104 -36 c100 -35 355 -136
392 -156 16 -9 14 -18 -28 -92 -166 -299 -434 -891 -434 -959 0 -33 36 -87 66
-98 67 -26 81 -18 214 117 193 196 387 423 583 681 l83 109 40 -20 c37 -18
385 -216 392 -222 2 -2 -15 -67 -37 -144 -22 -78 -48 -179 -58 -224 -15 -77
-15 -84 0 -117 35 -74 121 -92 181 -40 19 17 83 94 142 170 59 77 111 140 116
140 18 0 258 -156 254 -165 -3 -5 -36 -86 -76 -179 -107 -256 -250 -672 -250
-730 0 -33 32 -87 61 -101 51 -27 102 -19 156 23 167 133 463 436 620 635 l22
28 123 -75 c177 -108 162 -88 134 -176 -12 -41 -33 -118 -46 -171 -22 -92 -22
-96 -5 -132 21 -45 59 -67 113 -67 56 0 79 23 167 160 43 66 79 120 82 120 2
0 56 -29 121 -65 342 -192 704 -357 1019 -465 125 -44 163 -48 187 -24 27 27
19 71 -26 137 -133 197 -301 390 -550 631 -99 97 -177 176 -171 176 6 0 22 12
37 26 43 44 37 92 -27 200 -30 50 -67 111 -84 135 l-31 45 106 185 105 186
141 -106 c209 -158 389 -289 499 -364 77 -53 105 -67 135 -67 83 0 139 75 113
153 -16 46 -294 316 -609 591 -56 49 -102 93 -102 98 0 7 263 472 275 486 1 1
163 -119 360 -268 339 -256 359 -270 400 -270 84 0 144 86 112 162 -37 89
-269 438 -459 691 -65 86 -118 160 -118 163 0 12 90 144 98 144 24 0 466 -318
666 -479 99 -79 124 -95 153 -95 68 0 125 94 93 153 -21 40 -354 297 -638 494
-84 58 -153 108 -154 112 0 9 118 175 231 325 132 175 271 341 423 507 140
153 376 380 365 350 -4 -9 -83 -150 -177 -313 -139 -239 -169 -298 -159 -310
6 -8 17 -14 24 -14 7 0 126 180 264 399 323 514 296 467 283 497 -24 52 -68
27 -309 -173 -333 -276 -680 -645 -990 -1053 l-96 -127 -33 19 -32 19 79 153
c148 286 261 552 349 816 65 195 93 308 86 349 -6 42 -38 77 -83 91 -58 20
-84 6 -190 -103 -219 -226 -432 -497 -662 -840 l-92 -138 -37 23 c-134 82
-203 131 -199 141 3 7 41 89 85 182 122 262 241 566 317 815 23 77 25 89 13
125 -23 70 -102 104 -166 71 -63 -32 -419 -449 -641 -749 l-73 -98 -62 58 -62
58 102 210 c114 233 198 438 268 652 55 170 57 200 16 246 -35 41 -79 52 -123
33 -66 -28 -393 -349 -621 -611 -44 -49 -83 -94 -87 -99 -9 -10 -20 -1 -255
208 -98 88 -180 160 -181 161 -2 1 8 68 22 149 33 194 33 249 0 281 -17 18
-35 25 -64 25 -36 0 -52 -10 -142 -82 -55 -46 -107 -87 -114 -92 -9 -7 -117
83 -376 310 -200 176 -375 327 -389 337 -29 20 -85 22 -118 4z m789 -1159 c49
-45 89 -88 89 -95 0 -15 -134 -359 -149 -382 -7 -11 -49 11 -195 99 l-186 113
76 81 c74 78 266 265 272 266 2 0 44 -37 93 -82z m-1242 -53 c229 -124 485
-272 488 -282 3 -7 -101 -138 -143 -182 -6 -7 -51 38 -198 194 -154 165 -320
355 -310 355 3 0 77 -38 163 -85z m2516 19 c-15 -32 -60 -130 -102 -217 l-77
-157 -48 47 c-26 26 -48 51 -48 56 0 14 290 340 297 333 2 -1 -8 -29 -22 -62z
m-856 -310 c95 -73 148 -120 144 -127 -4 -7 -52 -73 -107 -147 -55 -74 -100
-136 -102 -138 -1 -2 -231 142 -241 151 -2 2 28 82 67 178 38 96 70 180 70
187 0 6 4 12 9 12 6 0 78 -52 160 -116z m-824 -197 c88 -55 179 -113 203 -129
l42 -29 -86 -170 c-47 -93 -89 -169 -93 -169 -8 0 -220 189 -347 309 l-91 86
94 108 c59 67 99 105 106 100 7 -4 84 -51 172 -106z m2195 -74 c-21 -49 -61
-137 -89 -197 l-51 -109 -32 25 c-18 14 -34 30 -36 36 -3 9 233 332 243 332 2
0 -14 -39 -35 -87z m-3722 -34 c157 -69 328 -157 524 -271 l137 -79 -67 -92
c-37 -51 -71 -94 -76 -96 -19 -8 -348 272 -548 468 -105 102 -130 131 -113
131 3 0 67 -27 143 -61z m2788 -10 l74 -52 -19 -31 c-10 -17 -51 -85 -91 -151
-39 -66 -73 -121 -75 -123 -5 -6 -195 123 -195 132 0 20 206 285 218 281 8 -3
47 -28 88 -56z m1813 -191 c-46 -110 -257 -538 -265 -538 -10 0 -94 54 -94 61
0 15 375 549 387 549 1 0 -12 -33 -28 -72z m-3470 -20 c48 -46 150 -139 226
-207 77 -69 141 -127 142 -130 2 -4 -1 -12 -6 -19 -6 -10 -63 23 -227 130
-120 79 -240 157 -266 174 l-47 29 41 53 c22 28 43 52 46 52 2 0 43 -37 91
-82z m899 -258 l-120 -180 -27 19 c-14 11 -48 39 -75 63 l-50 44 94 186 94
186 103 -69 102 -69 -121 -180z m1109 235 l32 -21 -96 -145 c-52 -79 -99 -148
-103 -153 -9 -9 -103 51 -98 63 2 4 44 76 93 159 l90 151 25 -16 c14 -9 39
-26 57 -38z m306 -289 c-52 -101 -146 -266 -152 -266 -4 0 -35 19 -68 43 l-61
43 101 152 100 153 48 -47 48 -47 -16 -31z m-997 32 c98 -68 103 -73 90 -93
-7 -11 -62 -97 -121 -190 -59 -94 -111 -174 -115 -179 -11 -11 -210 144 -207
160 2 12 240 373 245 374 2 0 50 -32 108 -72z m-1607 40 c107 -64 521 -342
519 -347 -15 -36 -135 -231 -142 -231 -21 0 -569 387 -564 399 5 12 143 200
147 201 2 0 20 -10 40 -22z m2942 -380 l39 -46 -63 -106 -63 -105 -97 70 c-53
39 -97 75 -97 81 0 6 30 66 68 133 l67 124 53 -52 c30 -29 71 -73 93 -99z
m-2041 76 c0 -9 -80 51 -80 59 0 5 18 -6 40 -23 22 -17 40 -34 40 -36z m1090
-12 c0 -4 -58 -100 -128 -213 l-128 -206 -47 37 -46 38 115 183 c64 101 122
194 130 207 l15 22 44 -30 c25 -17 45 -34 45 -38z m-2181 -159 c75 -54 206
-145 292 -203 l157 -106 -47 -77 c-25 -42 -49 -77 -54 -77 -4 0 -140 90 -302
201 l-294 200 52 79 c29 44 54 80 56 80 2 0 65 -44 140 -97z m3541 31 c24 -16
37 -31 33 -40 -3 -8 -6 -14 -7 -14 -1 0 -20 18 -41 40 -45 46 -41 51 15 14z
m-1080 -67 c30 -22 57 -41 59 -43 6 -5 -253 -434 -262 -434 -10 0 -137 99
-137 107 0 5 126 210 212 345 31 49 54 75 61 71 7 -4 37 -25 67 -46z m-1510 3
c32 -22 61 -44 64 -49 4 -5 -26 -59 -65 -120 l-72 -111 -26 16 c-81 53 -101
67 -101 72 0 8 132 232 137 232 2 0 31 -18 63 -40z m2869 -113 c8 -10 3 -25
-22 -60 -17 -26 -36 -47 -40 -47 -20 0 -18 37 3 77 24 44 40 53 59 30z m-389
-100 c0 -14 -74 -137 -83 -137 -13 0 -102 71 -100 80 1 5 24 43 50 86 l47 77
43 -49 c23 -27 43 -53 43 -57z m-2114 -48 c55 -39 103 -75 107 -79 13 -11
-114 -222 -129 -216 -30 12 -225 148 -222 155 8 21 134 211 139 211 4 0 51
-32 105 -71z m1509 -9 c95 -71 95 -71 81 -98 -32 -60 -237 -417 -244 -424 -7
-7 -194 134 -200 152 -4 11 250 440 260 440 5 0 51 -32 103 -70z m-3071 -142
c81 -65 208 -164 282 -220 127 -95 134 -102 121 -122 -7 -12 -62 -104 -122
-206 -59 -102 -115 -197 -124 -211 l-16 -26 -170 69 c-143 58 -269 101 -497
171 l-38 12 104 180 c163 286 288 485 300 477 6 -3 78 -59 160 -124z m936 -24
c30 -21 56 -38 58 -39 2 -2 -21 -39 -49 -83 l-52 -81 -59 40 c-32 22 -57 43
-55 47 34 61 91 152 96 152 3 0 31 -16 61 -36z m2923 12 c7 -17 -48 -101 -57
-87 -6 9 39 101 49 101 2 0 5 -6 8 -14z m-1938 -98 c24 -18 44 -35 44 -38 0
-3 -28 -51 -62 -107 l-63 -101 -47 34 -48 35 19 32 c11 18 38 65 62 105 23 39
44 72 47 72 2 0 24 -15 48 -32z m1540 -47 c0 -13 -270 -451 -278 -451 -5 0
-25 14 -46 31 l-39 30 115 202 c63 111 124 217 135 234 l19 33 47 -36 c26 -20
47 -39 47 -43z m584 -92 c57 -76 55 -77 -32 -11 -50 39 -55 46 -44 63 6 10 14
19 17 19 3 0 29 -32 59 -71z m-2611 -104 c1 -1 -19 -42 -45 -92 l-48 -90 -128
88 c-70 48 -128 90 -128 94 0 3 22 42 50 86 l51 79 122 -81 c68 -45 124 -83
126 -84z m803 4 c38 -28 69 -53 69 -56 0 -6 -98 -171 -112 -190 -7 -9 -30 3
-84 44 -70 52 -74 57 -61 77 7 12 35 56 61 99 27 42 50 77 53 77 3 0 36 -23
74 -51z m1439 36 c0 -14 -289 -475 -293 -468 -6 10 274 473 285 473 5 0 8 -2
8 -5z m-2993 -212 c4 -9 -164 -260 -251 -376 -13 -17 -15 -17 -50 -1 -20 10
-36 22 -36 27 0 5 41 80 92 166 50 86 105 179 121 208 l30 52 45 -32 c24 -18
47 -37 49 -44z m995 7 c21 -14 38 -27 38 -30 0 -6 -94 -158 -104 -167 -3 -3
-21 5 -40 18 l-34 23 46 93 c26 51 49 92 52 91 3 -2 22 -14 42 -28z m934 -116
c54 -42 101 -77 102 -79 5 -4 -117 -213 -127 -220 -4 -2 -37 22 -72 53 -36 31
-81 71 -100 87 l-36 30 60 103 c34 56 64 102 68 102 3 0 51 -34 105 -76z
m-1581 -129 c77 -53 141 -100 143 -105 2 -5 -13 -48 -33 -97 -21 -48 -53 -131
-72 -183 -20 -52 -37 -96 -38 -98 -2 -2 -20 7 -42 21 -21 13 -110 63 -198 112
-88 48 -162 89 -164 91 -6 5 250 364 258 360 3 -2 69 -48 146 -101z m1035 -45
c0 -10 -91 -170 -96 -170 -4 0 -139 95 -157 110 -5 4 17 46 47 94 l56 86 75
-56 c41 -31 75 -60 75 -64z m894 -93 l38 -33 -74 -132 -74 -131 -41 42 -41 42
71 122 c40 67 74 122 77 123 3 0 22 -15 44 -33z m-2629 -79 c14 -6 25 -15 25
-19 0 -7 -211 -283 -237 -309 -17 -17 24 68 110 228 33 61 64 112 68 112 4 0
20 -5 34 -12z m2027 -60 c46 -39 89 -77 96 -83 11 -10 5 -25 -33 -84 l-46 -72
-38 28 c-20 15 -65 48 -99 73 -34 25 -62 49 -62 54 0 14 83 156 92 156 4 0 45
-32 90 -72z m-949 26 c6 -6 -69 -124 -78 -124 -4 0 5 24 42 118 5 13 25 16 36
6z m1797 -79 c0 -7 -122 -209 -133 -220 -5 -5 10 26 34 70 24 44 52 97 64 117
17 32 35 49 35 33z m-1485 -122 l93 -57 -85 -171 c-47 -93 -86 -171 -87 -172
-2 -3 -238 144 -239 149 -3 9 207 308 216 308 5 0 50 -26 102 -57z m975 -148
l44 -45 -27 -55 -27 -56 -55 43 c-30 23 -55 46 -55 50 0 11 62 108 69 108 4 0
27 -20 51 -45z m-496 -174 c-33 -51 -188 -262 -203 -276 -14 -12 -24 -9 -79
26 -34 22 -62 42 -62 45 0 10 119 256 145 301 l25 42 95 -56 96 -56 -17 -26z
m393 -176 c2 -1 -24 -66 -56 -146 -32 -79 -66 -167 -75 -196 l-17 -52 -62 36
c-34 20 -90 54 -124 75 l-63 40 73 96 c40 53 94 127 120 163 l47 66 77 -40
c43 -22 79 -41 80 -42z m-720 -176 l43 -26 -28 -35 c-38 -48 -224 -258 -228
-258 -7 0 108 286 138 343 5 10 14 14 21 10 7 -4 31 -19 54 -34z m1198 -133
c139 -117 386 -349 488 -459 135 -145 249 -281 237 -285 -15 -6 -339 127 -530
217 -226 107 -506 257 -503 270 1 5 48 84 104 175 89 147 103 165 118 154 9
-7 48 -39 86 -72z"/>
</g>
</svg>
